<?xml version="1.0" encoding="iso-8859-1"?>
<!-- Generator: Adobe Illustrator 21.0.0, SVG Export Plug-In . SVG Version: 6.00 Build 0)  -->
<svg version="1.1" id="presentation--icon" xmlns="http://www.w3.org/2000/svg" xmlns:xlink="http://www.w3.org/1999/xlink" x="0px"
	 y="0px" viewBox="-83.5 619.5 69 67" style="enable-background:new -83.5 619.5 69 67;" xml:space="preserve">
<g id="presentation--icon_1_">
	<polygon style="fill:#E7F7FF;" points="-60.671,650.56 -49,650.56 -49,638.401 -43.808,639.865 -37.64,645.146 -36.93,651.847 
		-39.858,658.281 -46.87,662.009 -54.547,661.521 -59.118,657.705 	"/>
	<rect x="-81.55" y="625.243" style="fill:#E7F7FF;" width="65.034" height="5.725"/>
	<path style="fill:#F7F734;" d="M-62.89,645.568h9.119v-8.853l-4.56,1.531c0,0-2.674,2.552-2.718,2.663
		C-61.093,641.019-62.89,645.568-62.89,645.568z"/>
	<path style="fill:#368BD3;" d="M-21.441,669.545c1.427,0,2.588-1.161,2.588-2.588v-34.786h0.881c1.427,0,2.588-1.161,2.588-2.588
		v-2.833c0-1.427-1.161-2.588-2.588-2.588h-29.966v-2.185c0-0.585-0.476-1.061-1.061-1.061c-0.585,0-1.061,0.476-1.061,1.061v2.185
		h-29.966c-1.427,0-2.588,1.161-2.588,2.588v2.833c0,1.427,1.161,2.588,2.588,2.588h0.881v34.786c0,1.427,1.161,2.588,2.588,2.588
		h26.498v5.183l-11.506,8.439c-0.472,0.346-0.574,1.011-0.228,1.483c0.346,0.472,1.011,0.574,1.483,0.228l10.25-7.519v6.664
		c0,0.585,0.476,1.061,1.061,1.061c0.585,0,1.061-0.476,1.061-1.061v-6.664l10.25,7.519c0.183,0.134,0.4,0.206,0.626,0.206
		c0.342,0,0.655-0.158,0.857-0.434c0.346-0.472,0.244-1.137-0.228-1.483l-11.505-8.439v-5.183H-21.441z M-80.493,630.049v-3.765
		h62.987v3.765H-80.493z M-77.025,667.423v-35.252h56.049v35.252H-77.025z"/>
	<path style="fill:#368BD3;" d="M-49.029,637.392c-0.574,0-1.041,0.467-1.041,1.041v10.871h-10.871
		c-0.574,0-1.041,0.467-1.041,1.041c0,7.143,5.811,12.954,12.954,12.954c7.143,0,12.954-5.811,12.954-12.954
		C-36.075,643.203-41.886,637.392-49.029,637.392z M-49.029,661.216c-5.44,0-10.074-4.064-10.779-9.454l-0.049-0.376h10.828
		c0.574,0,1.041-0.467,1.041-1.041v-10.828l0.376,0.049c5.39,0.705,9.454,5.339,9.454,10.779
		C-38.158,656.34-43.035,661.216-49.029,661.216z"/>
	<path style="fill:#368BD3;" d="M-53.68,635.97c-5.362,0-9.724,4.363-9.724,9.725c0,0.574,0.467,1.041,1.041,1.041h8.682
		c0.574,0,1.041-0.467,1.041-1.041v-8.684C-52.639,636.437-53.106,635.97-53.68,635.97z M-54.722,644.654h-6.54l0.075-0.395
		c0.582-3.048,3.021-5.488,6.069-6.07l0.395-0.076V644.654z"/>
</g>
</svg>
